<svg viewBox="0 0 154 47" fill="none" xmlns="http://www.w3.org/2000/svg">
<g filter="url(#filter0_d_101_2)">
<mask id="path-1-outside-1_101_2" maskUnits="userSpaceOnUse" x="2" y="-1" fill='black'>
<rect fill="#27255D" x="2" y="-1" width="149" height="41"/>
<path d="M11.1903 0.90909L18.2216 23.0114H18.4915L25.5369 0.90909H32.3551L22.3267 30H14.4006L4.35795 0.90909H11.1903ZM43.1399 30.4261C40.9335 30.4261 39.0253 29.9574 37.4155 29.0199C35.8151 28.0729 34.5793 26.7566 33.7081 25.071C32.8369 23.3759 32.4013 21.411 32.4013 19.1761C32.4013 16.9223 32.8369 14.9527 33.7081 13.267C34.5793 11.572 35.8151 10.2557 37.4155 9.31818C39.0253 8.37121 40.9335 7.89773 43.1399 7.89773C45.3464 7.89773 47.2498 8.37121 48.8501 9.31818C50.46 10.2557 51.7005 11.572 52.5717 13.267C53.4429 14.9527 53.8786 16.9223 53.8786 19.1761C53.8786 21.411 53.4429 23.3759 52.5717 25.071C51.7005 26.7566 50.46 28.0729 48.8501 29.0199C47.2498 29.9574 45.3464 30.4261 43.1399 30.4261ZM43.1683 25.7386C44.1721 25.7386 45.0102 25.4545 45.6825 24.8864C46.3549 24.3087 46.8615 23.5227 47.2024 22.5284C47.5528 21.5341 47.728 20.4025 47.728 19.1335C47.728 17.8646 47.5528 16.733 47.2024 15.7386C46.8615 14.7443 46.3549 13.9583 45.6825 13.3807C45.0102 12.803 44.1721 12.5142 43.1683 12.5142C42.1551 12.5142 41.3028 12.803 40.6115 13.3807C39.9297 13.9583 39.4136 14.7443 39.0632 15.7386C38.7223 16.733 38.5518 17.8646 38.5518 19.1335C38.5518 20.4025 38.7223 21.5341 39.0632 22.5284C39.4136 23.5227 39.9297 24.3087 40.6115 24.8864C41.3028 25.4545 42.1551 25.7386 43.1683 25.7386ZM60.8459 38.1818C60.0788 38.1818 59.3591 38.1203 58.6868 37.9972C58.0239 37.8835 57.4747 37.7367 57.0391 37.5568L58.4027 33.0398C59.1129 33.2576 59.7521 33.3759 60.3203 33.3949C60.898 33.4138 61.3951 33.2813 61.8118 32.9972C62.2379 32.7131 62.5836 32.2301 62.8487 31.5483L63.2038 30.625L55.3771 8.18182H61.7408L66.2578 24.2045H66.4851L71.0447 8.18182H77.451L68.9709 32.358C68.5637 33.5322 68.0097 34.5549 67.3089 35.4261C66.6177 36.3068 65.7417 36.9839 64.6811 37.4574C63.6205 37.9403 62.3421 38.1818 60.8459 38.1818ZM86.1832 30.4119C84.7912 30.4119 83.5507 30.1705 82.4616 29.6875C81.3726 29.1951 80.5109 28.4706 79.8764 27.5142C79.2514 26.5483 78.9389 25.3456 78.9389 23.9062C78.9389 22.6941 79.1615 21.6761 79.6065 20.8523C80.0516 20.0284 80.6577 19.3655 81.4247 18.8636C82.1918 18.3617 83.063 17.983 84.0384 17.7273C85.0232 17.4716 86.0554 17.2917 87.1349 17.1875C88.4039 17.0549 89.4266 16.9318 90.2031 16.8182C90.9796 16.6951 91.5431 16.5152 91.8935 16.2784C92.2438 16.0417 92.419 15.6913 92.419 15.2273V15.142C92.419 14.2424 92.1349 13.5464 91.5668 13.054C91.008 12.5616 90.2126 12.3153 89.1804 12.3153C88.0914 12.3153 87.2249 12.5568 86.581 13.0398C85.937 13.5133 85.5109 14.1098 85.3026 14.8295L79.706 14.375C79.9901 13.0492 80.5488 11.9034 81.3821 10.9375C82.2154 9.96212 83.2902 9.21401 84.6065 8.69318C85.9323 8.16288 87.4664 7.89773 89.2088 7.89773C90.4209 7.89773 91.581 8.03977 92.6889 8.32386C93.8063 8.60795 94.7959 9.0483 95.6577 9.64489C96.5289 10.2415 97.2154 11.0085 97.7173 11.946C98.2192 12.8741 98.4702 13.9867 98.4702 15.2841V30H92.7315V26.9744H92.5611C92.2107 27.6562 91.742 28.2576 91.1548 28.7784C90.5677 29.2898 89.8622 29.6922 89.0384 29.9858C88.2145 30.2699 87.2628 30.4119 86.1832 30.4119ZM87.9162 26.2358C88.8063 26.2358 89.5923 26.0606 90.2741 25.7102C90.956 25.3504 91.491 24.8674 91.8793 24.2614C92.2675 23.6553 92.4616 22.9687 92.4616 22.2017V19.8864C92.2723 20.0095 92.0118 20.1231 91.6804 20.2273C91.3584 20.322 90.9938 20.4119 90.5866 20.4972C90.1795 20.5729 89.7723 20.6439 89.3651 20.7102C88.9579 20.767 88.5885 20.8191 88.2571 20.8665C87.5469 20.9706 86.9266 21.1364 86.3963 21.3636C85.866 21.5909 85.4541 21.8987 85.1605 22.2869C84.867 22.6657 84.7202 23.1392 84.7202 23.7074C84.7202 24.5312 85.0185 25.161 85.6151 25.5966C86.2211 26.0227 86.9882 26.2358 87.9162 26.2358ZM112.994 38.6364C111.034 38.6364 109.353 38.3665 107.952 37.8267C106.56 37.2964 105.452 36.572 104.628 35.6534C103.804 34.7348 103.269 33.7027 103.023 32.5568L108.619 31.804C108.79 32.2396 109.06 32.6468 109.429 33.0256C109.798 33.4044 110.286 33.7074 110.892 33.9347C111.508 34.1714 112.256 34.2898 113.136 34.2898C114.453 34.2898 115.537 33.9678 116.389 33.3239C117.251 32.6894 117.682 31.6241 117.682 30.1278V26.1364H117.426C117.161 26.7424 116.763 27.3153 116.233 27.8551C115.703 28.3949 115.021 28.8352 114.188 29.1761C113.354 29.517 112.36 29.6875 111.205 29.6875C109.566 29.6875 108.075 29.3087 106.73 28.5511C105.395 27.7841 104.33 26.6146 103.534 25.0426C102.748 23.4612 102.355 21.4631 102.355 19.0483C102.355 16.5767 102.758 14.5123 103.562 12.8551C104.367 11.1979 105.438 9.95739 106.773 9.13352C108.117 8.30966 109.59 7.89773 111.19 7.89773C112.412 7.89773 113.435 8.10606 114.259 8.52273C115.082 8.92992 115.745 9.44129 116.247 10.0568C116.759 10.6629 117.152 11.2595 117.426 11.8466H117.653V8.18182H123.662V30.2131C123.662 32.0691 123.207 33.6222 122.298 34.8722C121.389 36.1222 120.13 37.0597 118.52 37.6847C116.92 38.3191 115.078 38.6364 112.994 38.6364ZM113.122 25.142C114.098 25.142 114.921 24.9006 115.594 24.4176C116.276 23.9252 116.796 23.2244 117.156 22.3153C117.526 21.3968 117.71 20.2983 117.71 19.0199C117.71 17.7415 117.53 16.6335 117.17 15.696C116.811 14.7491 116.29 14.0152 115.608 13.4943C114.926 12.9735 114.098 12.7131 113.122 12.7131C112.128 12.7131 111.29 12.983 110.608 13.5227C109.926 14.053 109.41 14.7917 109.06 15.7386C108.709 16.6856 108.534 17.7794 108.534 19.0199C108.534 20.2794 108.709 21.3684 109.06 22.2869C109.42 23.196 109.936 23.9015 110.608 24.4034C111.29 24.8958 112.128 25.142 113.122 25.142ZM138.335 30.4261C136.129 30.4261 134.221 29.9574 132.611 29.0199C131.01 28.0729 129.775 26.7566 128.903 25.071C128.032 23.3759 127.597 21.411 127.597 19.1761C127.597 16.9223 128.032 14.9527 128.903 13.267C129.775 11.572 131.01 10.2557 132.611 9.31818C134.221 8.37121 136.129 7.89773 138.335 7.89773C140.542 7.89773 142.445 8.37121 144.045 9.31818C145.655 10.2557 146.896 11.572 147.767 13.267C148.638 14.9527 149.074 16.9223 149.074 19.1761C149.074 21.411 148.638 23.3759 147.767 25.071C146.896 26.7566 145.655 28.0729 144.045 29.0199C142.445 29.9574 140.542 30.4261 138.335 30.4261ZM138.364 25.7386C139.367 25.7386 140.205 25.4545 140.878 24.8864C141.55 24.3087 142.057 23.5227 142.398 22.5284C142.748 21.5341 142.923 20.4025 142.923 19.1335C142.923 17.8646 142.748 16.733 142.398 15.7386C142.057 14.7443 141.55 13.9583 140.878 13.3807C140.205 12.803 139.367 12.5142 138.364 12.5142C137.35 12.5142 136.498 12.803 135.807 13.3807C135.125 13.9583 134.609 14.7443 134.259 15.7386C133.918 16.733 133.747 17.8646 133.747 19.1335C133.747 20.4025 133.918 21.5341 134.259 22.5284C134.609 23.5227 135.125 24.3087 135.807 24.8864C136.498 25.4545 137.35 25.7386 138.364 25.7386Z"/>
</mask>
<path d="M11.1903 0.90909L18.2216 23.0114H18.4915L25.5369 0.90909H32.3551L22.3267 30H14.4006L4.35795 0.90909H11.1903ZM43.1399 30.4261C40.9335 30.4261 39.0253 29.9574 37.4155 29.0199C35.8151 28.0729 34.5793 26.7566 33.7081 25.071C32.8369 23.3759 32.4013 21.411 32.4013 19.1761C32.4013 16.9223 32.8369 14.9527 33.7081 13.267C34.5793 11.572 35.8151 10.2557 37.4155 9.31818C39.0253 8.37121 40.9335 7.89773 43.1399 7.89773C45.3464 7.89773 47.2498 8.37121 48.8501 9.31818C50.46 10.2557 51.7005 11.572 52.5717 13.267C53.4429 14.9527 53.8786 16.9223 53.8786 19.1761C53.8786 21.411 53.4429 23.3759 52.5717 25.071C51.7005 26.7566 50.46 28.0729 48.8501 29.0199C47.2498 29.9574 45.3464 30.4261 43.1399 30.4261ZM43.1683 25.7386C44.1721 25.7386 45.0102 25.4545 45.6825 24.8864C46.3549 24.3087 46.8615 23.5227 47.2024 22.5284C47.5528 21.5341 47.728 20.4025 47.728 19.1335C47.728 17.8646 47.5528 16.733 47.2024 15.7386C46.8615 14.7443 46.3549 13.9583 45.6825 13.3807C45.0102 12.803 44.1721 12.5142 43.1683 12.5142C42.1551 12.5142 41.3028 12.803 40.6115 13.3807C39.9297 13.9583 39.4136 14.7443 39.0632 15.7386C38.7223 16.733 38.5518 17.8646 38.5518 19.1335C38.5518 20.4025 38.7223 21.5341 39.0632 22.5284C39.4136 23.5227 39.9297 24.3087 40.6115 24.8864C41.3028 25.4545 42.1551 25.7386 43.1683 25.7386ZM60.8459 38.1818C60.0788 38.1818 59.3591 38.1203 58.6868 37.9972C58.0239 37.8835 57.4747 37.7367 57.0391 37.5568L58.4027 33.0398C59.1129 33.2576 59.7521 33.3759 60.3203 33.3949C60.898 33.4138 61.3951 33.2813 61.8118 32.9972C62.2379 32.7131 62.5836 32.2301 62.8487 31.5483L63.2038 30.625L55.3771 8.18182H61.7408L66.2578 24.2045H66.4851L71.0447 8.18182H77.451L68.9709 32.358C68.5637 33.5322 68.0097 34.5549 67.3089 35.4261C66.6177 36.3068 65.7417 36.9839 64.6811 37.4574C63.6205 37.9403 62.3421 38.1818 60.8459 38.1818ZM86.1832 30.4119C84.7912 30.4119 83.5507 30.1705 82.4616 29.6875C81.3726 29.1951 80.5109 28.4706 79.8764 27.5142C79.2514 26.5483 78.9389 25.3456 78.9389 23.9062C78.9389 22.6941 79.1615 21.6761 79.6065 20.8523C80.0516 20.0284 80.6577 19.3655 81.4247 18.8636C82.1918 18.3617 83.063 17.983 84.0384 17.7273C85.0232 17.4716 86.0554 17.2917 87.1349 17.1875C88.4039 17.0549 89.4266 16.9318 90.2031 16.8182C90.9796 16.6951 91.5431 16.5152 91.8935 16.2784C92.2438 16.0417 92.419 15.6913 92.419 15.2273V15.142C92.419 14.2424 92.1349 13.5464 91.5668 13.054C91.008 12.5616 90.2126 12.3153 89.1804 12.3153C88.0914 12.3153 87.2249 12.5568 86.581 13.0398C85.937 13.5133 85.5109 14.1098 85.3026 14.8295L79.706 14.375C79.9901 13.0492 80.5488 11.9034 81.3821 10.9375C82.2154 9.96212 83.2902 9.21401 84.6065 8.69318C85.9323 8.16288 87.4664 7.89773 89.2088 7.89773C90.4209 7.89773 91.581 8.03977 92.6889 8.32386C93.8063 8.60795 94.7959 9.0483 95.6577 9.64489C96.5289 10.2415 97.2154 11.0085 97.7173 11.946C98.2192 12.8741 98.4702 13.9867 98.4702 15.2841V30H92.7315V26.9744H92.5611C92.2107 27.6562 91.742 28.2576 91.1548 28.7784C90.5677 29.2898 89.8622 29.6922 89.0384 29.9858C88.2145 30.2699 87.2628 30.4119 86.1832 30.4119ZM87.9162 26.2358C88.8063 26.2358 89.5923 26.0606 90.2741 25.7102C90.956 25.3504 91.491 24.8674 91.8793 24.2614C92.2675 23.6553 92.4616 22.9687 92.4616 22.2017V19.8864C92.2723 20.0095 92.0118 20.1231 91.6804 20.2273C91.3584 20.322 90.9938 20.4119 90.5866 20.4972C90.1795 20.5729 89.7723 20.6439 89.3651 20.7102C88.9579 20.767 88.5885 20.8191 88.2571 20.8665C87.5469 20.9706 86.9266 21.1364 86.3963 21.3636C85.866 21.5909 85.4541 21.8987 85.1605 22.2869C84.867 22.6657 84.7202 23.1392 84.7202 23.7074C84.7202 24.5312 85.0185 25.161 85.6151 25.5966C86.2211 26.0227 86.9882 26.2358 87.9162 26.2358ZM112.994 38.6364C111.034 38.6364 109.353 38.3665 107.952 37.8267C106.56 37.2964 105.452 36.572 104.628 35.6534C103.804 34.7348 103.269 33.7027 103.023 32.5568L108.619 31.804C108.79 32.2396 109.06 32.6468 109.429 33.0256C109.798 33.4044 110.286 33.7074 110.892 33.9347C111.508 34.1714 112.256 34.2898 113.136 34.2898C114.453 34.2898 115.537 33.9678 116.389 33.3239C117.251 32.6894 117.682 31.6241 117.682 30.1278V26.1364H117.426C117.161 26.7424 116.763 27.3153 116.233 27.8551C115.703 28.3949 115.021 28.8352 114.188 29.1761C113.354 29.517 112.36 29.6875 111.205 29.6875C109.566 29.6875 108.075 29.3087 106.73 28.5511C105.395 27.7841 104.33 26.6146 103.534 25.0426C102.748 23.4612 102.355 21.4631 102.355 19.0483C102.355 16.5767 102.758 14.5123 103.562 12.8551C104.367 11.1979 105.438 9.95739 106.773 9.13352C108.117 8.30966 109.59 7.89773 111.19 7.89773C112.412 7.89773 113.435 8.10606 114.259 8.52273C115.082 8.92992 115.745 9.44129 116.247 10.0568C116.759 10.6629 117.152 11.2595 117.426 11.8466H117.653V8.18182H123.662V30.2131C123.662 32.0691 123.207 33.6222 122.298 34.8722C121.389 36.1222 120.13 37.0597 118.52 37.6847C116.92 38.3191 115.078 38.6364 112.994 38.6364ZM113.122 25.142C114.098 25.142 114.921 24.9006 115.594 24.4176C116.276 23.9252 116.796 23.2244 117.156 22.3153C117.526 21.3968 117.71 20.2983 117.71 19.0199C117.71 17.7415 117.53 16.6335 117.17 15.696C116.811 14.7491 116.29 14.0152 115.608 13.4943C114.926 12.9735 114.098 12.7131 113.122 12.7131C112.128 12.7131 111.29 12.983 110.608 13.5227C109.926 14.053 109.41 14.7917 109.06 15.7386C108.709 16.6856 108.534 17.7794 108.534 19.0199C108.534 20.2794 108.709 21.3684 109.06 22.2869C109.42 23.196 109.936 23.9015 110.608 24.4034C111.29 24.8958 112.128 25.142 113.122 25.142ZM138.335 30.4261C136.129 30.4261 134.221 29.9574 132.611 29.0199C131.01 28.0729 129.775 26.7566 128.903 25.071C128.032 23.3759 127.597 21.411 127.597 19.1761C127.597 16.9223 128.032 14.9527 128.903 13.267C129.775 11.572 131.01 10.2557 132.611 9.31818C134.221 8.37121 136.129 7.89773 138.335 7.89773C140.542 7.89773 142.445 8.37121 144.045 9.31818C145.655 10.2557 146.896 11.572 147.767 13.267C148.638 14.9527 149.074 16.9223 149.074 19.1761C149.074 21.411 148.638 23.3759 147.767 25.071C146.896 26.7566 145.655 28.0729 144.045 29.0199C142.445 29.9574 140.542 30.4261 138.335 30.4261ZM138.364 25.7386C139.367 25.7386 140.205 25.4545 140.878 24.8864C141.55 24.3087 142.057 23.5227 142.398 22.5284C142.748 21.5341 142.923 20.4025 142.923 19.1335C142.923 17.8646 142.748 16.733 142.398 15.7386C142.057 14.7443 141.55 13.9583 140.878 13.3807C140.205 12.803 139.367 12.5142 138.364 12.5142C137.35 12.5142 136.498 12.803 135.807 13.3807C135.125 13.9583 134.609 14.7443 134.259 15.7386C133.918 16.733 133.747 17.8646 133.747 19.1335C133.747 20.4025 133.918 21.5341 134.259 22.5284C134.609 23.5227 135.125 24.3087 135.807 24.8864C136.498 25.4545 137.35 25.7386 138.364 25.7386Z" fill="#27255D"  />
<path d="M11.1903 0.90909L12.1433 0.605937L11.9216 -0.09091H11.1903V0.90909ZM18.2216 23.0114L17.2686 23.3145L17.4903 24.0114H18.2216V23.0114ZM18.4915 23.0114V24.0114H19.2223L19.4442 23.3151L18.4915 23.0114ZM25.5369 0.90909V-0.09091H24.8061L24.5842 0.605381L25.5369 0.90909ZM32.3551 0.90909L33.3005 1.235L33.7576 -0.09091H32.3551V0.90909ZM22.3267 30V31H23.0397L23.2721 30.3259L22.3267 30ZM14.4006 30L13.4553 30.3263L13.6879 31H14.4006V30ZM4.35795 0.90909V-0.09091H2.95483L3.41269 1.23541L4.35795 0.90909ZM10.2374 1.21224L17.2686 23.3145L19.1745 22.7082L12.1433 0.605937L10.2374 1.21224ZM18.2216 24.0114H18.4915V22.0114H18.2216V24.0114ZM19.4442 23.3151L26.4897 1.2128L24.5842 0.605381L17.5387 22.7077L19.4442 23.3151ZM25.5369 1.90909H32.3551V-0.09091H25.5369V1.90909ZM31.4097 0.583185L21.3813 29.6741L23.2721 30.3259L33.3005 1.235L31.4097 0.583185ZM22.3267 29H14.4006V31H22.3267V29ZM15.3458 29.6737L5.30321 0.582772L3.41269 1.23541L13.4553 30.3263L15.3458 29.6737ZM4.35795 1.90909H11.1903V-0.09091H4.35795V1.90909ZM37.4155 29.0199L36.9062 29.8805L36.9122 29.884L37.4155 29.0199ZM33.7081 25.071L32.8187 25.5281L32.8197 25.5302L33.7081 25.071ZM33.7081 13.267L34.5965 13.7262L34.5975 13.7242L33.7081 13.267ZM37.4155 9.31818L37.9209 10.181L37.9225 10.1801L37.4155 9.31818ZM48.8501 9.31818L48.3409 10.1788L48.3469 10.1823L48.8501 9.31818ZM52.5717 13.267L51.6823 13.7242L51.6834 13.7262L52.5717 13.267ZM52.5717 25.071L53.4601 25.5302L53.4611 25.5281L52.5717 25.071ZM48.8501 29.0199L49.3556 29.8827L49.3572 29.8818L48.8501 29.0199ZM45.6825 24.8864L46.328 25.6502L46.3342 25.6449L45.6825 24.8864ZM47.2024 22.5284L46.2592 22.196L46.2565 22.2041L47.2024 22.5284ZM47.2024 15.7386L46.2564 16.063L46.2593 16.071L47.2024 15.7386ZM40.6115 13.3807L39.9703 12.6133L39.9651 12.6177L40.6115 13.3807ZM39.0632 15.7386L38.12 15.4063L38.1173 15.4143L39.0632 15.7386ZM39.0632 22.5284L38.1172 22.8527L38.1201 22.8608L39.0632 22.5284ZM40.6115 24.8864L39.9651 25.6493L39.9708 25.6542L39.9765 25.6589L40.6115 24.8864ZM43.1399 29.4261C41.0775 29.4261 39.3497 28.9891 37.9187 28.1557L36.9122 29.884C38.7009 30.9257 40.7895 31.4261 43.1399 31.4261V29.4261ZM37.9247 28.1593C36.4893 27.3099 35.3833 26.1343 34.5965 24.6119L32.8197 25.5302C33.7753 27.3789 35.1409 28.8359 36.9062 29.8805L37.9247 28.1593ZM34.5975 24.6139C33.8105 23.0828 33.4013 21.2794 33.4013 19.1761H31.4013C31.4013 21.5426 31.8632 23.6691 32.8187 25.5281L34.5975 24.6139ZM33.4013 19.1761C33.4013 17.0523 33.8112 15.2455 34.5965 13.7262L32.8197 12.8079C31.8626 14.6598 31.4013 16.7924 31.4013 19.1761H33.4013ZM34.5975 13.7242C35.3844 12.1931 36.4892 11.0198 37.9209 10.181L36.91 8.45533C35.141 9.49161 33.7742 10.9508 32.8187 12.8099L34.5975 13.7242ZM37.9225 10.1801C39.3528 9.33874 41.0792 8.89773 43.1399 8.89773V6.89773C40.7878 6.89773 38.6978 7.40368 36.9085 8.45625L37.9225 10.1801ZM43.1399 8.89773C45.2008 8.89773 46.9213 9.33881 48.3409 10.1788L49.3594 8.45756C47.5782 7.40362 45.4919 6.89773 43.1399 6.89773V8.89773ZM48.3469 10.1823C49.7879 11.0215 50.8962 12.1947 51.6823 13.7242L53.4611 12.8099C52.5048 10.9492 51.1321 9.48989 49.3534 8.45403L48.3469 10.1823ZM51.6834 13.7262C52.4686 15.2455 52.8786 17.0523 52.8786 19.1761H54.8786C54.8786 16.7924 54.4172 14.6598 53.4601 12.8079L51.6834 13.7262ZM52.8786 19.1761C52.8786 21.2794 52.4693 23.0828 51.6823 24.6139L53.4611 25.5281C54.4166 23.6691 54.8786 21.5426 54.8786 19.1761H52.8786ZM51.6834 24.6119C50.8973 26.1328 49.7877 27.3082 48.3431 28.158L49.3572 29.8818C51.1323 28.8376 52.5037 27.3805 53.4601 25.5302L51.6834 24.6119ZM48.3447 28.157C46.9244 28.989 45.2025 29.4261 43.1399 29.4261V31.4261C45.4902 31.4261 47.5751 30.9257 49.3556 29.8827L48.3447 28.157ZM43.1683 26.7386C44.3732 26.7386 45.45 26.3921 46.328 25.6502L45.0371 24.1226C44.5704 24.517 43.971 24.7386 43.1683 24.7386V26.7386ZM46.3342 25.6449C47.1647 24.9313 47.7605 23.9839 48.1484 22.8527L46.2565 22.2041C45.9625 23.0615 45.5451 23.6861 45.0309 24.1279L46.3342 25.6449ZM48.1456 22.8608C48.5403 21.7404 48.728 20.4933 48.728 19.1335H46.728C46.728 20.3116 46.5652 21.3277 46.2593 22.1961L48.1456 22.8608ZM48.728 19.1335C48.728 17.7737 48.5403 16.5266 48.1456 15.4063L46.2593 16.071C46.5652 16.9393 46.728 17.9554 46.728 19.1335H48.728ZM48.1484 15.4143C47.7605 14.2831 47.1647 13.3357 46.3342 12.6222L45.0309 14.1392C45.5451 14.581 45.9625 15.2055 46.2565 16.063L48.1484 15.4143ZM46.3342 12.6222C45.4564 11.8681 44.3775 11.5142 43.1683 11.5142V13.5142C43.9667 13.5142 44.5639 13.738 45.0309 14.1392L46.3342 12.6222ZM43.1683 11.5142C41.9518 11.5142 40.8639 11.8666 39.9703 12.6133L41.2527 14.148C41.7416 13.7395 42.3584 13.5142 43.1683 13.5142V11.5142ZM39.9651 12.6177C39.1253 13.3292 38.5187 14.2749 38.1201 15.4063L40.0064 16.071C40.3085 15.2137 40.734 14.5875 41.2579 14.1437L39.9651 12.6177ZM38.1173 15.4143C37.734 16.5321 37.5518 17.7764 37.5518 19.1335H39.5518C39.5518 17.9528 39.7106 16.9338 40.0092 16.063L38.1173 15.4143ZM37.5518 19.1335C37.5518 20.4907 37.734 21.735 38.1173 22.8527L40.0092 22.2041C39.7106 21.3332 39.5518 20.3143 39.5518 19.1335H37.5518ZM38.1201 22.8608C38.5187 23.9921 39.1253 24.9379 39.9651 25.6493L41.2579 24.1234C40.734 23.6795 40.3085 23.0533 40.0064 22.1961L38.1201 22.8608ZM39.9765 25.6589C40.8703 26.3935 41.9559 26.7386 43.1683 26.7386V24.7386C42.3542 24.7386 41.7353 24.5156 41.2465 24.1138L39.9765 25.6589ZM58.6868 37.9972L58.8669 37.0134L58.8558 37.0115L58.6868 37.9972ZM57.0391 37.5568L56.0817 37.2678L55.8199 38.1352L56.6573 38.4811L57.0391 37.5568ZM58.4027 33.0398L58.6959 32.0837L57.7356 31.7892L57.4454 32.7508L58.4027 33.0398ZM60.3203 33.3949L60.287 34.3943L60.2875 34.3943L60.3203 33.3949ZM61.8118 32.9972L61.2571 32.1651L61.2485 32.1709L61.8118 32.9972ZM62.8487 31.5483L63.7807 31.9107L63.7821 31.9073L62.8487 31.5483ZM63.2038 30.625L64.1372 30.984L64.2688 30.6418L64.1481 30.2957L63.2038 30.625ZM55.3771 8.18182V7.18182H53.9693L54.4329 8.5111L55.3771 8.18182ZM61.7408 8.18182L62.7033 7.91048L62.4978 7.18182H61.7408V8.18182ZM66.2578 24.2045L65.2953 24.4759L65.5007 25.2045H66.2578V24.2045ZM66.4851 24.2045V25.2045H67.2402L67.4469 24.4783L66.4851 24.2045ZM71.0447 8.18182V7.18182H70.2896L70.0829 7.90811L71.0447 8.18182ZM77.451 8.18182L78.3946 8.51281L78.8615 7.18182H77.451V8.18182ZM68.9709 32.358L68.0272 32.027L68.0261 32.0303L68.9709 32.358ZM67.3089 35.4261L66.5297 34.7993L66.5223 34.8087L67.3089 35.4261ZM64.6811 37.4574L64.2734 36.5442L64.2667 36.5473L64.6811 37.4574ZM60.8459 37.1818C60.132 37.1818 59.4731 37.1245 58.8669 37.0135L58.5067 38.9808C59.2451 39.116 60.0256 39.1818 60.8459 39.1818V37.1818ZM58.8558 37.0115C58.2377 36.9056 57.7658 36.7751 57.4208 36.6326L56.6573 38.4811C57.1835 38.6984 57.8102 38.8615 58.5178 38.9828L58.8558 37.0115ZM57.9964 37.8458L59.36 33.3288L57.4454 32.7508L56.0817 37.2678L57.9964 37.8458ZM58.1095 33.9958C58.8798 34.2321 59.6085 34.3717 60.287 34.3943L60.3536 32.3954C59.8958 32.3802 59.346 32.2831 58.6959 32.0837L58.1095 33.9958ZM60.2875 34.3943C61.045 34.4192 61.7583 34.244 62.3751 33.8234L61.2485 32.1709C61.032 32.3185 60.7509 32.4085 60.3531 32.3954L60.2875 34.3943ZM62.3665 33.8292C63.0227 33.3917 63.4717 32.7053 63.7807 31.9107L61.9167 31.1858C61.6954 31.755 61.4532 32.0344 61.2571 32.1651L62.3665 33.8292ZM63.7821 31.9073L64.1372 30.984L62.2705 30.266L61.9154 31.1893L63.7821 31.9073ZM64.1481 30.2957L56.3214 7.85253L54.4329 8.5111L62.2596 30.9543L64.1481 30.2957ZM55.3771 9.18182H61.7408V7.18182H55.3771V9.18182ZM60.7783 8.45316L65.2953 24.4759L67.2203 23.9332L62.7033 7.91048L60.7783 8.45316ZM66.2578 25.2045H66.4851V23.2045H66.2578V25.2045ZM67.4469 24.4783L72.0066 8.45552L70.0829 7.90811L65.5233 23.9308L67.4469 24.4783ZM71.0447 9.18182H77.451V7.18182H71.0447V9.18182ZM76.5074 7.85083L68.0272 32.027L69.9145 32.6889L78.3946 8.51281L76.5074 7.85083ZM68.0261 32.0303C67.6523 33.1081 67.151 34.027 66.5297 34.7994L68.0882 36.0529C68.8685 35.0828 69.475 33.9563 69.9157 32.6856L68.0261 32.0303ZM66.5223 34.8087C65.9353 35.5566 65.1913 36.1345 64.2735 36.5442L65.0888 38.3705C66.2921 37.8333 67.3 37.057 68.0956 36.0436L66.5223 34.8087ZM64.2667 36.5473C63.3676 36.9567 62.2382 37.1818 60.8459 37.1818V39.1818C62.446 39.1818 63.8734 38.924 65.0955 38.3675L64.2667 36.5473ZM82.4616 29.6875L82.0496 30.5987L82.0562 30.6016L82.4616 29.6875ZM79.8764 27.5142L79.0368 28.0575L79.0431 28.067L79.8764 27.5142ZM79.6065 20.8523L78.7267 20.377L78.7267 20.377L79.6065 20.8523ZM81.4247 18.8636L80.8772 18.0268L80.8772 18.0268L81.4247 18.8636ZM84.0384 17.7273L83.7871 16.7594L83.7848 16.76L84.0384 17.7273ZM87.1349 17.1875L87.231 18.1829L87.2389 18.1821L87.1349 17.1875ZM90.2031 16.8182L90.3479 17.8077L90.3597 17.8058L90.2031 16.8182ZM91.8935 16.2784L91.3336 15.4498L91.3336 15.4498L91.8935 16.2784ZM91.5668 13.054L90.9055 13.8042L90.9118 13.8097L91.5668 13.054ZM86.581 13.0398L87.1734 13.8455L87.181 13.8398L86.581 13.0398ZM85.3026 14.8295L85.2216 15.8263L86.0359 15.8924L86.2631 15.1076L85.3026 14.8295ZM79.706 14.375L78.7282 14.1655L78.4894 15.2795L79.625 15.3717L79.706 14.375ZM81.3821 10.9375L82.1393 11.5907L82.1424 11.5871L81.3821 10.9375ZM84.6065 8.69318L84.9745 9.62304L84.9779 9.62166L84.6065 8.69318ZM92.6889 8.32386L92.4405 9.29253L92.4425 9.29303L92.6889 8.32386ZM95.6577 9.64489L95.0885 10.4671L95.0927 10.47L95.6577 9.64489ZM97.7173 11.946L96.8357 12.418L96.8377 12.4217L97.7173 11.946ZM98.4702 30V31H99.4702V30H98.4702ZM92.7315 30H91.7315V31H92.7315V30ZM92.7315 26.9744H93.7315V25.9744H92.7315V26.9744ZM92.5611 26.9744V25.9744H91.9507L91.6716 26.5174L92.5611 26.9744ZM91.1548 28.7784L91.8116 29.5325L91.8184 29.5265L91.1548 28.7784ZM89.0384 29.9858L89.3644 30.9312L89.374 30.9278L89.0384 29.9858ZM90.2741 25.7102L90.7312 26.5997L90.7409 26.5946L90.2741 25.7102ZM91.8793 24.2614L91.0372 23.7219L91.0372 23.7219L91.8793 24.2614ZM92.4616 19.8864H93.4616V18.0437L91.9167 19.0479L92.4616 19.8864ZM91.6804 20.2273L91.9626 21.1866L91.9714 21.184L91.9802 21.1813L91.6804 20.2273ZM90.5866 20.4972L90.7696 21.4803L90.7806 21.4782L90.7915 21.4759L90.5866 20.4972ZM89.3651 20.7102L89.5033 21.7006L89.5145 21.6991L89.5257 21.6972L89.3651 20.7102ZM88.2571 20.8665L88.1157 19.8765L88.112 19.8771L88.2571 20.8665ZM86.3963 21.3636L86.7902 22.2828L86.7902 22.2828L86.3963 21.3636ZM85.1605 22.2869L85.951 22.8995L85.9582 22.89L85.1605 22.2869ZM85.6151 25.5966L85.0254 26.4042L85.0326 26.4095L85.0399 26.4146L85.6151 25.5966ZM86.1832 29.4119C84.9075 29.4119 83.8087 29.191 82.867 28.7734L82.0562 30.6016C83.2926 31.1499 84.6748 31.4119 86.1832 31.4119V29.4119ZM82.8737 28.7763C81.9485 28.358 81.2358 27.7545 80.7097 26.9614L79.0431 28.067C79.7859 29.1868 80.7967 30.0321 82.0496 30.5987L82.8737 28.7763ZM80.716 26.971C80.2192 26.2032 79.9389 25.2012 79.9389 23.9062H77.9389C77.9389 25.4901 78.2837 26.8934 79.0369 28.0575L80.716 26.971ZM79.9389 23.9062C79.9389 22.8126 80.14 21.9687 80.4864 21.3276L78.7267 20.377C78.1829 21.3836 77.9389 22.5756 77.9389 23.9062H79.9389ZM80.4864 21.3276C80.8542 20.6467 81.3474 20.1093 81.9722 19.7004L80.8772 18.0268C79.968 18.6218 79.249 19.4101 78.7267 20.377L80.4864 21.3276ZM81.9722 19.7004C82.6404 19.2632 83.4105 18.9256 84.2919 18.6946L83.7848 16.76C82.7154 17.0403 81.7431 17.4603 80.8772 18.0268L81.9722 19.7004ZM84.2896 18.6952C85.2203 18.4536 86.2004 18.2823 87.231 18.1829L87.0389 16.1921C85.9104 16.301 84.8261 16.4896 83.7871 16.7594L84.2896 18.6952ZM87.2389 18.1821C88.5142 18.0488 89.5521 17.9241 90.3479 17.8076L90.0583 15.8287C89.3011 15.9395 88.2936 16.061 87.031 16.1929L87.2389 18.1821ZM90.3597 17.8058C91.1774 17.6762 91.9177 17.4689 92.4533 17.107L91.3336 15.4498C91.1684 15.5614 90.7819 15.7139 90.0465 15.8305L90.3597 17.8058ZM92.4533 17.107C93.109 16.664 93.419 15.9854 93.419 15.2273H91.419C91.419 15.3325 91.3997 15.3779 91.3932 15.3909C91.3886 15.4002 91.378 15.4198 91.3336 15.4498L92.4533 17.107ZM93.419 15.2273V15.142H91.419V15.2273H93.419ZM93.419 15.142C93.419 14.0149 93.0522 13.0181 92.2217 12.2983L90.9118 13.8097C91.2177 14.0747 91.419 14.4699 91.419 15.142H93.419ZM92.228 12.3038C91.4267 11.5975 90.3621 11.3153 89.1804 11.3153V13.3153C90.0631 13.3153 90.5894 13.5256 90.9056 13.8042L92.228 12.3038ZM89.1804 11.3153C87.9505 11.3153 86.8499 11.588 85.981 12.2398L87.181 13.8398C87.5999 13.5256 88.2323 13.3153 89.1804 13.3153V11.3153ZM85.9886 12.2341C85.1798 12.8288 84.6158 13.6056 84.342 14.5515L86.2631 15.1076C86.406 14.6141 86.6943 14.1977 87.1734 13.8454L85.9886 12.2341ZM85.3835 13.8328L79.7869 13.3783L79.625 15.3717L85.2216 15.8263L85.3835 13.8328ZM80.6838 14.5845C80.935 13.4122 81.4224 12.4216 82.1393 11.5907L80.6249 10.2843C79.6751 11.3852 79.0451 12.6863 78.7282 14.1655L80.6838 14.5845ZM82.1424 11.5871C82.8591 10.7482 83.7939 10.0902 84.9745 9.62303L84.2386 7.76333C82.7866 8.33786 81.5717 9.17607 80.6218 10.2879L82.1424 11.5871ZM84.9779 9.62166C86.1627 9.14776 87.5664 8.89773 89.2088 8.89773V6.89773C87.3664 6.89773 85.7019 7.178 84.2351 7.7647L84.9779 9.62166ZM89.2088 8.89773C90.3421 8.89773 91.4184 9.03045 92.4405 9.29253L92.9373 7.3552C91.7435 7.0491 90.4997 6.89773 89.2088 6.89773V8.89773ZM92.4425 9.29303C93.456 9.55069 94.334 9.94479 95.0885 10.4671L96.2269 8.82269C95.2578 8.1518 94.1567 7.66522 92.9353 7.35469L92.4425 9.29303ZM95.0927 10.47C95.8306 10.9753 96.409 11.6208 96.8357 12.418L98.5989 11.474C98.0219 10.3962 97.2272 9.50767 96.2227 8.8198L95.0927 10.47ZM96.8377 12.4217C97.2444 13.1737 97.4702 14.1152 97.4702 15.2841H99.4702C99.4702 13.8583 99.194 12.5744 98.5969 11.4703L96.8377 12.4217ZM97.4702 15.2841V30H99.4702V15.2841H97.4702ZM98.4702 29H92.7315V31H98.4702V29ZM93.7315 30V26.9744H91.7315V30H93.7315ZM92.7315 25.9744H92.5611V27.9744H92.7315V25.9744ZM91.6716 26.5174C91.3792 27.0864 90.9879 27.5897 90.4912 28.0303L91.8184 29.5265C92.496 28.9255 93.0422 28.2261 93.4505 27.4315L91.6716 26.5174ZM90.498 28.0243C90.0162 28.444 89.4232 28.7871 88.7027 29.0438L89.374 30.9278C90.3013 30.5974 91.1192 30.1355 91.8116 29.5325L90.498 28.0243ZM88.7124 29.0404C88.015 29.2809 87.1773 29.4119 86.1832 29.4119V31.4119C87.3483 31.4119 88.414 31.2589 89.3643 30.9312L88.7124 29.0404ZM87.9162 27.2358C88.9397 27.2358 89.8868 27.0336 90.7312 26.5997L89.8171 24.8208C89.2979 25.0876 88.673 25.2358 87.9162 25.2358V27.2358ZM90.7409 26.5946C91.5643 26.16 92.2332 25.5627 92.7213 24.8008L91.0372 23.7219C90.7488 24.1722 90.3476 24.5407 89.8074 24.8258L90.7409 26.5946ZM92.7213 24.8008C93.2196 24.023 93.4616 23.1468 93.4616 22.2017H91.4616C91.4616 22.7907 91.3155 23.2876 91.0372 23.7219L92.7213 24.8008ZM93.4616 22.2017V19.8864H91.4616V22.2017H93.4616ZM91.9167 19.0479C91.8326 19.1026 91.6666 19.1834 91.3806 19.2733L91.9802 21.1813C92.3571 21.0628 92.7119 20.9164 93.0066 20.7248L91.9167 19.0479ZM91.3982 19.2679C91.1069 19.3536 90.7688 19.4374 90.3818 19.5184L90.7915 21.4759C91.2189 21.3865 91.6099 21.2904 91.9626 21.1866L91.3982 19.2679ZM90.4037 19.514C90.0039 19.5884 89.6041 19.6581 89.2044 19.7232L89.5257 21.6972C89.9404 21.6297 90.355 21.5574 90.7696 21.4803L90.4037 19.514ZM89.2269 19.7198C88.8188 19.7768 88.4484 19.829 88.1157 19.8765L88.3985 21.8564C88.7287 21.8093 89.0969 21.7573 89.5033 21.7006L89.2269 19.7198ZM88.112 19.8771C87.336 19.9909 86.6288 20.176 86.0024 20.4445L86.7902 22.2828C87.2244 22.0967 87.7577 21.9504 88.4022 21.8559L88.112 19.8771ZM86.0024 20.4445C85.342 20.7275 84.7792 21.1332 84.3629 21.6838L85.9582 22.89C86.129 22.6641 86.39 22.4543 86.7902 22.2828L86.0024 20.4445ZM84.3701 21.6744C83.9167 22.2594 83.7202 22.9601 83.7202 23.7074H85.7202C85.7202 23.3183 85.8172 23.072 85.9509 22.8995L84.3701 21.6744ZM83.7202 23.7074C83.7202 24.808 84.1384 25.7566 85.0254 26.4042L86.2048 24.789C85.8985 24.5654 85.7202 24.2545 85.7202 23.7074H83.7202ZM85.0399 26.4146C85.8526 26.9861 86.8346 27.2358 87.9162 27.2358V25.2358C87.1417 25.2358 86.5896 25.0594 86.1902 24.7786L85.0399 26.4146ZM107.952 37.8267L108.311 36.8935L108.308 36.8922L107.952 37.8267ZM104.628 35.6534L103.883 36.3211L103.883 36.3211L104.628 35.6534ZM103.023 32.5568L102.889 31.5657L101.818 31.7099L102.045 32.7669L103.023 32.5568ZM108.619 31.804L109.551 31.4396L109.264 30.7082L108.486 30.8129L108.619 31.804ZM109.429 33.0256L110.145 32.3275L110.145 32.3275L109.429 33.0256ZM110.892 33.9347L111.251 33.0013L111.243 32.9983L110.892 33.9347ZM116.389 33.3239L115.796 32.5185L115.786 32.526L116.389 33.3239ZM117.682 26.1364H118.682V25.1364H117.682V26.1364ZM117.426 26.1364V25.1364H116.772L116.51 25.7355L117.426 26.1364ZM116.233 27.8551L116.946 28.5559L116.946 28.5559L116.233 27.8551ZM106.73 28.5511L106.232 29.4183L106.239 29.4224L106.73 28.5511ZM103.534 25.0426L102.639 25.4877L102.642 25.4941L103.534 25.0426ZM103.562 12.8551L102.663 12.4182L102.663 12.4182L103.562 12.8551ZM106.773 9.13352L106.25 8.28083L106.248 8.28249L106.773 9.13352ZM114.259 8.52273L113.807 9.41513L113.815 9.41921L114.259 8.52273ZM116.247 10.0568L115.472 10.6888L115.477 10.6953L115.483 10.7017L116.247 10.0568ZM117.426 11.8466L116.52 12.2703L116.79 12.8466H117.426V11.8466ZM117.653 11.8466V12.8466H118.653V11.8466H117.653ZM117.653 8.18182V7.18182H116.653V8.18182H117.653ZM123.662 8.18182H124.662V7.18182H123.662V8.18182ZM122.298 34.8722L121.49 34.284L121.49 34.284L122.298 34.8722ZM118.52 37.6847L118.158 36.7524L118.151 36.755L118.52 37.6847ZM115.594 24.4176L116.177 25.2298L116.179 25.2283L115.594 24.4176ZM117.156 22.3153L116.228 21.9423L116.226 21.9473L117.156 22.3153ZM117.17 15.696L116.236 16.0512L116.237 16.0544L117.17 15.696ZM110.608 13.5227L111.222 14.3121L111.229 14.3068L110.608 13.5227ZM109.06 15.7386L109.998 16.0856L109.998 16.0856L109.06 15.7386ZM109.06 22.2869L108.125 22.6434L108.13 22.655L109.06 22.2869ZM110.608 24.4034L110.01 25.2048L110.016 25.2095L110.022 25.2141L110.608 24.4034ZM112.994 37.6364C111.121 37.6364 109.569 37.3779 108.311 36.8935L107.592 38.7599C109.138 39.355 110.947 39.6364 112.994 39.6364V37.6364ZM108.308 36.8922C107.034 36.407 106.07 35.7635 105.372 34.9857L103.883 36.3211C104.834 37.3804 106.085 38.1858 107.596 38.7612L108.308 36.8922ZM105.372 34.9857C104.658 34.1897 104.208 33.3132 104 32.3467L102.045 32.7669C102.33 34.0921 102.95 35.28 103.883 36.3211L105.372 34.9857ZM103.156 33.5479L108.753 32.7951L108.486 30.8129L102.889 31.5657L103.156 33.5479ZM107.688 32.1684C107.913 32.7438 108.263 33.2617 108.713 33.7237L110.145 32.3275C109.857 32.0319 109.666 31.7354 109.551 31.4396L107.688 32.1684ZM108.713 33.7237C109.205 34.2286 109.827 34.6034 110.541 34.871L111.243 32.9983C110.745 32.8114 110.391 32.5801 110.145 32.3275L108.713 33.7237ZM110.533 34.868C111.294 35.1609 112.172 35.2898 113.136 35.2898V33.2898C112.34 33.2898 111.721 33.182 111.251 33.0013L110.533 34.868ZM113.136 35.2898C114.619 35.2898 115.929 34.9249 116.992 34.1217L115.786 32.526C115.145 33.0107 114.287 33.2898 113.136 33.2898V35.2898ZM116.982 34.1291C118.192 33.2383 118.682 31.8066 118.682 30.1278H116.682C116.682 31.4415 116.31 32.1405 115.796 32.5186L116.982 34.1291ZM118.682 30.1278V26.1364H116.682V30.1278H118.682ZM117.682 25.1364H117.426V27.1364H117.682V25.1364ZM116.51 25.7355C116.3 26.2153 115.977 26.689 115.52 27.1543L116.946 28.5559C117.55 27.9417 118.022 27.2696 118.342 26.5372L116.51 25.7355ZM115.52 27.1543C115.101 27.5806 114.54 27.9515 113.809 28.2506L114.566 30.1017C115.502 29.719 116.305 29.2091 116.946 28.5559L115.52 27.1543ZM113.809 28.2506C113.124 28.5306 112.265 28.6875 111.205 28.6875V30.6875C112.455 30.6875 113.584 30.5035 114.566 30.1017L113.809 28.2506ZM111.205 28.6875C109.727 28.6875 108.407 28.3478 107.221 27.6799L106.239 29.4224C107.743 30.2696 109.405 30.6875 111.205 30.6875V28.6875ZM107.228 27.684C106.086 27.0276 105.147 26.0149 104.426 24.5911L102.642 25.4941C103.512 27.2143 104.704 28.5406 106.232 29.4182L107.228 27.684ZM104.43 24.5975C103.733 23.1956 103.355 21.3624 103.355 19.0483H101.355C101.355 21.5638 101.763 23.7267 102.639 25.4877L104.43 24.5975ZM103.355 19.0483C103.355 16.6788 103.742 14.7748 104.462 13.292L102.663 12.4182C101.773 14.2498 101.355 16.4746 101.355 19.0483H103.355ZM104.462 13.292C105.199 11.7754 106.151 10.6924 107.298 9.98456L106.248 8.28249C104.724 9.22235 103.536 10.6205 102.663 12.4182L104.462 13.292ZM107.295 9.98621C108.48 9.26017 109.771 8.89773 111.19 8.89773V6.89773C109.408 6.89773 107.755 7.35915 106.25 8.28083L107.295 9.98621ZM111.19 8.89773C112.304 8.89773 113.161 9.08828 113.807 9.41509L114.71 7.63036C113.708 7.12385 112.52 6.89773 111.19 6.89773V8.89773ZM113.815 9.41921C114.531 9.7729 115.074 10.2003 115.472 10.6888L117.022 9.42488C116.417 8.68232 115.634 8.08695 114.702 7.62625L113.815 9.41921ZM115.483 10.7017C115.95 11.2549 116.29 11.7782 116.52 12.2703L118.332 11.4229C118.013 10.7408 117.567 10.0708 117.011 9.41195L115.483 10.7017ZM117.426 12.8466H117.653V10.8466H117.426V12.8466ZM118.653 11.8466V8.18182H116.653V11.8466H118.653ZM117.653 9.18182H123.662V7.18182H117.653V9.18182ZM122.662 8.18182V30.2131H124.662V8.18182H122.662ZM122.662 30.2131C122.662 31.9013 122.251 33.237 121.49 34.284L123.107 35.4603C124.164 34.0073 124.662 32.237 124.662 30.2131H122.662ZM121.49 34.284C120.706 35.361 119.611 36.1885 118.158 36.7524L118.882 38.6169C120.649 37.9308 122.072 36.8833 123.107 35.4603L121.49 34.284ZM118.151 36.755C116.69 37.3344 114.977 37.6364 112.994 37.6364V39.6364C115.178 39.6364 117.149 39.3039 118.888 38.6143L118.151 36.755ZM113.122 26.142C114.268 26.142 115.306 25.8555 116.177 25.2298L115.01 23.6054C114.537 23.9456 113.927 24.142 113.122 24.142V26.142ZM116.179 25.2283C117.039 24.607 117.668 23.7404 118.086 22.6834L116.226 21.9473C115.925 22.7084 115.512 23.2434 115.008 23.6069L116.179 25.2283ZM118.084 22.6884C118.513 21.6222 118.71 20.3906 118.71 19.0199H116.71C116.71 20.206 116.538 21.1713 116.228 21.9423L118.084 22.6884ZM118.71 19.0199C118.71 17.651 118.518 16.416 118.104 15.3377L116.237 16.0544C116.543 16.851 116.71 17.832 116.71 19.0199H118.71ZM118.105 15.3408C117.691 14.2516 117.07 13.3526 116.215 12.6996L115.001 14.289C115.51 14.6777 115.93 15.2466 116.236 16.0512L118.105 15.3408ZM116.215 12.6996C115.335 12.0277 114.285 11.7131 113.122 11.7131V13.7131C113.91 13.7131 114.517 13.9192 115.001 14.289L116.215 12.6996ZM113.122 11.7131C111.936 11.7131 110.871 12.0393 109.987 12.7387L111.229 14.3068C111.709 13.9266 112.319 13.7131 113.122 13.7131V11.7131ZM109.994 12.7334C109.142 13.3962 108.526 14.2999 108.122 15.3916L109.998 16.0856C110.294 15.2834 110.711 14.7098 111.222 14.3121L109.994 12.7334ZM108.122 15.3916C107.722 16.4718 107.534 17.6871 107.534 19.0199H109.534C109.534 17.8716 109.696 16.8994 109.998 16.0856L108.122 15.3916ZM107.534 19.0199C107.534 20.3685 107.721 21.584 108.125 22.6433L109.994 21.9305C109.697 21.1528 109.534 20.1902 109.534 19.0199H107.534ZM108.13 22.655C108.546 23.7075 109.166 24.5747 110.01 25.2048L111.206 23.6021C110.705 23.2283 110.293 22.6845 109.989 21.9189L108.13 22.655ZM110.022 25.2141C110.904 25.8508 111.957 26.142 113.122 26.142V24.142C112.299 24.142 111.675 23.9409 111.193 23.5927L110.022 25.2141ZM132.611 29.0199L132.102 29.8805L132.108 29.884L132.611 29.0199ZM128.903 25.071L128.014 25.5281L128.015 25.5302L128.903 25.071ZM128.903 13.267L129.792 13.7262L129.793 13.7242L128.903 13.267ZM132.611 9.31818L133.116 10.181L133.118 10.1801L132.611 9.31818ZM144.045 9.31818L143.536 10.1788L143.542 10.1823L144.045 9.31818ZM147.767 13.267L146.878 13.7242L146.879 13.7262L147.767 13.267ZM147.767 25.071L148.655 25.5302L148.656 25.5281L147.767 25.071ZM144.045 29.0199L144.551 29.8827L144.552 29.8818L144.045 29.0199ZM140.878 24.8864L141.523 25.6502L141.53 25.6449L140.878 24.8864ZM142.398 22.5284L141.455 22.196L141.452 22.2041L142.398 22.5284ZM142.398 15.7386L141.452 16.063L141.455 16.071L142.398 15.7386ZM135.807 13.3807L135.166 12.6133L135.16 12.6177L135.807 13.3807ZM134.259 15.7386L133.315 15.4063L133.313 15.4143L134.259 15.7386ZM134.259 22.5284L133.313 22.8527L133.315 22.8608L134.259 22.5284ZM135.807 24.8864L135.16 25.6493L135.166 25.6542L135.172 25.6589L135.807 24.8864ZM138.335 29.4261C136.273 29.4261 134.545 28.9891 133.114 28.1557L132.108 29.884C133.896 30.9257 135.985 31.4261 138.335 31.4261V29.4261ZM133.12 28.1593C131.685 27.3099 130.579 26.1343 129.792 24.6119L128.015 25.5302C128.971 27.3789 130.336 28.8359 132.102 29.8805L133.12 28.1593ZM129.793 24.6139C129.006 23.0828 128.597 21.2794 128.597 19.1761H126.597C126.597 21.5426 127.059 23.6691 128.014 25.5281L129.793 24.6139ZM128.597 19.1761C128.597 17.0523 129.006 15.2455 129.792 13.7262L128.015 12.8079C127.058 14.6598 126.597 16.7924 126.597 19.1761H128.597ZM129.793 13.7242C130.58 12.1931 131.685 11.0198 133.116 10.181L132.105 8.45533C130.336 9.49161 128.97 10.9508 128.014 12.8099L129.793 13.7242ZM133.118 10.1801C134.548 9.33874 136.275 8.89773 138.335 8.89773V6.89773C135.983 6.89773 133.893 7.40368 132.104 8.45625L133.118 10.1801ZM138.335 8.89773C140.396 8.89773 142.117 9.33881 143.536 10.1788L144.555 8.45756C142.774 7.40362 140.687 6.89773 138.335 6.89773V8.89773ZM143.542 10.1823C144.983 11.0215 146.092 12.1947 146.878 13.7242L148.656 12.8099C147.7 10.9492 146.327 9.48989 144.549 8.45403L143.542 10.1823ZM146.879 13.7262C147.664 15.2455 148.074 17.0523 148.074 19.1761H150.074C150.074 16.7924 149.613 14.6598 148.655 12.8079L146.879 13.7262ZM148.074 19.1761C148.074 21.2794 147.665 23.0828 146.878 24.6139L148.656 25.5281C149.612 23.6691 150.074 21.5426 150.074 19.1761H148.074ZM146.879 24.6119C146.093 26.1328 144.983 27.3082 143.538 28.158L144.552 29.8818C146.328 28.8376 147.699 27.3805 148.655 25.5302L146.879 24.6119ZM143.54 28.157C142.12 28.989 140.398 29.4261 138.335 29.4261V31.4261C140.685 31.4261 142.77 30.9257 144.551 29.8827L143.54 28.157ZM138.364 26.7386C139.569 26.7386 140.645 26.3921 141.523 25.6502L140.232 24.1226C139.766 24.517 139.166 24.7386 138.364 24.7386V26.7386ZM141.53 25.6449C142.36 24.9313 142.956 23.9839 143.344 22.8527L141.452 22.2041C141.158 23.0615 140.74 23.6861 140.226 24.1279L141.53 25.6449ZM143.341 22.8608C143.736 21.7404 143.923 20.4933 143.923 19.1335H141.923C141.923 20.3116 141.761 21.3277 141.455 22.1961L143.341 22.8608ZM143.923 19.1335C143.923 17.7737 143.736 16.5266 143.341 15.4063L141.455 16.071C141.761 16.9393 141.923 17.9554 141.923 19.1335H143.923ZM143.344 15.4143C142.956 14.2831 142.36 13.3357 141.53 12.6222L140.226 14.1392C140.74 14.581 141.158 15.2055 141.452 16.063L143.344 15.4143ZM141.53 12.6222C140.652 11.8681 139.573 11.5142 138.364 11.5142V13.5142C139.162 13.5142 139.759 13.738 140.226 14.1392L141.53 12.6222ZM138.364 11.5142C137.147 11.5142 136.059 11.8666 135.166 12.6133L136.448 14.148C136.937 13.7395 137.554 13.5142 138.364 13.5142V11.5142ZM135.16 12.6177C134.321 13.3292 133.714 14.2749 133.315 15.4063L135.202 16.071C135.504 15.2137 135.929 14.5875 136.453 14.1437L135.16 12.6177ZM133.313 15.4143C132.929 16.5321 132.747 17.7764 132.747 19.1335H134.747C134.747 17.9528 134.906 16.9338 135.204 16.063L133.313 15.4143ZM132.747 19.1335C132.747 20.4907 132.929 21.735 133.313 22.8527L135.204 22.2041C134.906 21.3332 134.747 20.3143 134.747 19.1335H132.747ZM133.315 22.8608C133.714 23.9921 134.321 24.9379 135.16 25.6493L136.453 24.1234C135.929 23.6795 135.504 23.0533 135.202 22.1961L133.315 22.8608ZM135.172 25.6589C136.066 26.3935 137.151 26.7386 138.364 26.7386V24.7386C137.55 24.7386 136.931 24.5156 136.442 24.1138L135.172 25.6589Z" fill="black" mask="url(#path-1-outside-1_101_2)"/>
</g>
<defs>
<filter id="filter0_d_101_2" x="0.35791" y="0.909088" width="152.716" height="45.7273" filterUnits="userSpaceOnUse" color-interpolation-filters="sRGB">
<feFlood flood-opacity="0" result="BackgroundImageFix"/>
<feColorMatrix in="SourceAlpha" type="matrix" values="0 0 0 0 0 0 0 0 0 0 0 0 0 0 0 0 0 0 127 0" result="hardAlpha"/>
<feOffset dy="4"/>
<feGaussianBlur stdDeviation="2"/>
<feComposite in2="hardAlpha" operator="out"/>
<feColorMatrix type="matrix" values="0 0 0 0 0 0 0 0 0 0 0 0 0 0 0 0 0 0 0.25 0"/>
<feBlend mode="normal" in2="BackgroundImageFix" result="effect1_dropShadow_101_2"/>
<feBlend mode="normal" in="SourceGraphic" in2="effect1_dropShadow_101_2" result="shape"/>
</filter>
</defs>
</svg>
